# Blender 4.2.2 LTS
# www.blender.org
mtllib MultiMaterialMesh.mtl
o Cube
v -4.000000 -1.000000 2.000000
v -4.000000 1.000000 2.000000
v -4.000000 -1.000000 -2.000000
v -4.000000 1.000000 -2.000000
v 4.000000 -1.000000 2.000000
v 4.000000 1.000000 2.000000
v 4.000000 -1.000000 -2.000000
v 4.000000 1.000000 -2.000000
v -4.000000 -1.000000 6.000000
v -4.000000 1.000000 6.000000
v 4.000000 1.000000 6.000000
v 4.000000 -1.000000 6.000000
v -4.000000 1.000000 -6.000000
v -4.000000 -1.000000 -6.000000
v 4.000000 -1.000000 -6.000000
v 4.000000 1.000000 -6.000000
vn -1.0000 -0.0000 -0.0000
vn 1.0000 -0.0000 -0.0000
vn -0.0000 -1.0000 -0.0000
vn -0.0000 1.0000 -0.0000
vn -0.0000 -0.0000 1.0000
vn -0.0000 -0.0000 -1.0000
vt 0.375000 0.000000
vt 0.625000 0.000000
vt 0.625000 0.250000
vt 0.375000 0.250000
vt 0.625000 0.500000
vt 0.375000 0.500000
vt 0.625000 0.750000
vt 0.375000 0.750000
vt 0.125000 0.750000
vt 0.125000 0.500000
vt 0.875000 0.500000
vt 0.875000 0.750000
vt 0.625000 1.000000
vt 0.375000 1.000000
s 0
usemtl Material1
f 1/9/3 5/8/3 12/8/3 9/9/3
f 12/8/5 11/7/5 10/13/5 9/14/5
f 6/7/4 2/12/4 10/12/4 11/7/4
f 5/8/2 6/7/2 11/7/2 12/8/2
f 2/2/1 1/1/1 9/1/1 10/2/1
usemtl Material2
f 1/1/1 2/2/1 4/3/1 3/4/1
f 7/6/2 8/5/2 6/7/2 5/8/2
f 3/10/3 7/6/3 5/8/3 1/9/3
f 8/5/4 4/11/4 2/12/4 6/7/4
usemtl Material3
f 8/5/2 7/6/2 15/6/2 16/5/2
f 14/4/6 13/3/6 16/5/6 15/6/6
f 7/6/3 3/10/3 14/10/3 15/6/3
f 4/11/4 8/5/4 16/5/4 13/11/4
f 3/4/1 4/3/1 13/3/1 14/4/1
